<svg width="1728" height="1117" viewBox="0 0 1728 1117" fill="none" xmlns="http://www.w3.org/2000/svg">
<g clip-path="url(#clip0_121_307)">
<rect y="856.116" width="1734.68" height="260.884" fill="#523028"/>
<path d="M691.411 889.226L665.585 886.413L666.224 897.055L693.556 895.414L691.411 889.226Z" fill="black"/>
<path d="M660.14 890.581L634.82 884.773L634.211 895.416L661.548 896.978L660.14 890.581Z" fill="black"/>
<path d="M639.755 671.101C639.755 687.09 648.202 696.678 658.993 699.775C670.398 699.775 678.211 697.449 681.051 686.457C681.866 683.303 678.659 672.941 678.659 669.376C673.823 656.839 673.03 661.329 660.882 659.216C646.204 659.216 647.677 659.48 639.755 671.101Z" fill="#FFD2B1"/>
<path d="M679.805 662.811C671.055 653.002 656.32 650.621 650.608 653.497C644.895 656.373 643.222 662.079 643.222 662.079C643.222 662.079 644.126 664.51 645.014 665.916C647.486 669.828 650.174 671.483 654.484 673.147C659.439 675.059 661.253 675.279 666.856 675.603C673.083 675.963 678.747 674.532 683.645 671.035C685.5 669.71 686.935 667.951 687.227 665.656C687.487 663.616 685.129 659.333 684.923 660.722C684.717 662.112 682.366 665.682 679.805 662.811Z" fill="#E39898"/>
<rect width="8.81467" height="8.81467" transform="matrix(-1 0 0 1 663.885 695.182)" fill="#FFD2B1"/>
<rect width="8.81467" height="62.8045" transform="matrix(-0.914782 0.403949 0.403949 0.914782 677.9 725.321)" fill="#FFD2B1"/>
<path d="M658.794 703.476C620.663 703.476 644.546 759.967 644.546 759.967C644.546 759.967 627.916 825.016 617.26 866.697C616.487 869.72 612.157 875.185 602.236 875.185C606.225 878.985 610.455 881.182 613.375 881.894C675.382 897.011 714.503 879.814 723.767 871.449C724.741 870.569 727.196 868.815 728.407 865.537C725.453 867.506 718.961 869.014 713.399 864.494C705.186 857.822 671.474 759.967 671.474 759.967C671.474 759.967 696.924 703.476 658.794 703.476Z" fill="#FB7171"/>
<circle r="10.8263" transform="matrix(-1 0 0 1 659.01 717.946)" fill="#F29F9F"/>
<path d="M629.52 727.024C622.717 717.506 634.081 676.269 638.99 666.243C643.898 656.217 650.427 657.523 650.427 657.523C650.427 657.523 652.285 660.89 653.365 661.93C656.372 664.822 660.057 667.969 660.394 672.091C660.782 676.831 653.86 712.791 652.549 717.822C651.092 723.413 646.262 728.349 641.52 732.072C639.724 733.483 632.349 734.27 630.081 734.12C628.066 733.986 624.672 731.129 626.054 731.194C627.435 731.259 631.511 729.81 629.52 727.024Z" fill="#E39898"/>
<rect width="8.81467" height="62.8045" transform="matrix(-1 0 0 1 662.984 725.824)" fill="#FFD2B1"/>
<rect x="343.812" y="510.801" width="10.1965" height="392.637" fill="black"/>
<rect x="311.154" y="581.631" width="10.1965" height="343.264" transform="rotate(-90 311.154 581.631)" fill="black"/>
<rect x="318.284" y="817.068" width="10.1965" height="343.264" transform="rotate(-90 318.284 817.068)" fill="black"/>
<rect x="385.19" y="510.801" width="10.1965" height="392.637" fill="black"/>
<rect x="426.569" y="507.157" width="10.1965" height="392.637" fill="black"/>
<rect x="467.948" y="507.157" width="10.1965" height="392.637" fill="black"/>
<rect x="509.327" y="507.157" width="10.1965" height="392.637" fill="black"/>
<rect x="550.706" y="507.157" width="10.1965" height="392.637" fill="black"/>
<rect x="592.086" y="507.157" width="10.1965" height="392.637" fill="black"/>
<rect x="633.465" y="507.157" width="10.1965" height="392.637" fill="black"/>
<rect x="1112.79" y="508.979" width="10.1965" height="392.637" fill="black"/>
<rect x="1071.41" y="510.801" width="10.1965" height="392.637" fill="black"/>
<rect x="1030.03" y="512.623" width="10.1965" height="392.637" fill="black"/>
<rect x="988.651" y="514.445" width="10.1965" height="392.637" fill="black"/>
<rect x="947.272" y="516.267" width="10.1965" height="392.637" fill="black"/>
<rect x="905.893" y="518.089" width="10.1965" height="392.637" fill="black"/>
<rect x="894.81" y="532.454" width="10.1965" height="392.637" fill="black"/>
<rect x="936.189" y="546.866" width="10.1965" height="392.637" fill="black"/>
<rect x="981.953" y="560.908" width="10.1965" height="392.637" fill="black"/>
<rect x="1027.72" y="574.95" width="10.1965" height="392.637" fill="black"/>
<rect x="860.708" y="579.809" width="10.1965" height="525.05" transform="rotate(-90 860.708 579.809)" fill="black"/>
<rect x="871.614" y="815.246" width="10.1965" height="525.05" transform="rotate(-90 871.614 815.246)" fill="black"/>
<rect width="13.6395" height="231.68" transform="matrix(0.0412533 -0.999149 0.870746 0.491733 865.213 583.24)" fill="black"/>
<rect width="13.6395" height="231.68" transform="matrix(0.0412533 -0.999149 0.870746 0.491733 874.21 817.068)" fill="black"/>
<rect x="1154.17" y="508.979" width="10.1965" height="392.637" fill="black"/>
<rect x="1195.55" y="505.335" width="10.1965" height="392.637" fill="black"/>
<rect x="1236.93" y="505.335" width="10.1965" height="392.637" fill="black"/>
<rect x="1278.3" y="505.335" width="10.1965" height="392.637" fill="black"/>
<rect x="1319.68" y="505.335" width="10.1965" height="392.637" fill="black"/>
<rect x="1361.06" y="505.335" width="10.1965" height="392.637" fill="black"/>
<path d="M941.18 703.264C941.18 723.211 930.642 735.172 917.18 739.035C902.952 739.035 893.205 736.134 889.662 722.422C888.645 718.487 892.646 705.56 892.646 701.112C898.68 685.473 899.668 691.074 914.823 688.438C933.134 688.438 931.296 688.767 941.18 703.264Z" fill="#FFD2B1"/>
<path d="M891.217 692.923C902.133 680.686 920.514 677.716 927.641 681.303C934.768 684.891 936.855 692.009 936.855 692.009C936.855 692.009 935.727 695.043 934.619 696.797C931.535 701.676 928.182 703.742 922.805 705.817C916.623 708.203 914.361 708.477 907.37 708.881C899.603 709.33 892.537 707.545 886.426 703.182C884.111 701.529 882.322 699.335 881.958 696.472C881.633 693.927 884.575 688.584 884.832 690.317C885.089 692.051 888.022 696.505 891.217 692.923Z" fill="#5E5D6A"/>
<path d="M942.902 723.78C951.389 711.906 943.568 697.828 938.096 692.143C932.625 686.458 930.587 683.109 930.587 683.109C930.587 683.109 928.027 684.651 926.679 685.948C922.928 689.557 913.453 688.44 913.032 693.583C912.548 699.496 912.537 706.024 914.173 712.3C915.99 719.275 922.015 725.433 927.931 730.078C930.172 731.837 939.372 732.819 942.201 732.632C944.716 732.465 948.949 728.9 947.226 728.981C945.502 729.062 940.418 727.255 942.902 723.78Z" fill="#5E5D6A"/>
<path d="M910.401 667.71L917.419 687.827H903.383L910.401 667.71Z" fill="#FFD953"/>
<path d="M918.504 667.71L925.522 687.827H911.486L918.504 667.71Z" fill="#FFD953"/>
<path d="M927.231 667.71L934.25 687.827H920.213L927.231 667.71Z" fill="#FFD953"/>
<rect x="893.593" y="770.905" width="10.9965" height="78.3498" transform="rotate(23.8253 893.593 770.905)" fill="#FFD2B1"/>
<path d="M903.486 832.751L925.594 849.197L884.809 911.429L868.23 901.512L903.486 832.751Z" fill="#2E4971"/>
<path d="M868.371 898.728L888.096 901.908L878.968 975.28L864.884 973.826L868.371 898.728Z" fill="black"/>
<path d="M847.4 964.225L879.76 962.462L878.247 975.675L844.311 971.79L847.4 964.225Z" fill="black"/>
<path d="M932.526 978.387L961.944 964.791L965.421 977.627L932.451 986.558L932.526 978.387Z" fill="black"/>
<path d="M911.972 838.394L941.09 838.394L939.694 913.315L921.016 913.555L911.972 838.394Z" fill="#2E4971"/>
<path d="M920.907 913.625L939.591 913.01L965.703 976.728L952.683 980.849L920.907 913.625Z" fill="black"/>
<rect x="911.077" y="733.307" width="10.9965" height="10.9965" fill="#FFD2B1"/>
<path d="M917.175 741.609C964.743 741.609 941.538 838.393 941.538 838.393H894.937C894.937 838.393 869.606 741.609 917.175 741.609Z" fill="#0D2156"/>
<rect x="912.2" y="771.533" width="10.9965" height="78.3498" fill="#FFD2B1"/>
<circle cx="917.158" cy="761.705" r="13.506" fill="#2E4971"/>
<circle cx="331.801" cy="887.897" r="12.0107" fill="#007C0C"/>
</g>
<defs>
<clipPath id="clip0_121_307">
<rect width="1728" height="1117" fill="white"/>
</clipPath>
</defs>
</svg>
