<svg width="328" height="588" viewBox="0 0 328 588" fill="none" xmlns="http://www.w3.org/2000/svg">
<path d="M66.2298 96.5325C66.2298 150.335 94.6544 182.596 130.963 193.018C169.341 193.018 195.63 185.192 205.187 148.206C207.929 137.594 197.139 102.725 197.139 90.7294C180.865 48.5456 178.199 63.6529 137.321 56.5435C87.9326 56.5435 92.8891 57.4322 66.2298 96.5325Z" fill="#FFD2B1"/>
<path d="M200.994 68.6401C171.551 35.6341 121.971 27.6213 102.748 37.2978C83.5256 46.9743 77.8968 66.1747 77.8968 66.1747C77.8968 66.1747 80.9372 74.3566 83.927 79.0873C92.2448 92.2486 101.29 97.82 115.793 103.417C132.466 109.852 138.569 110.593 157.424 111.682C178.375 112.892 197.433 108.079 213.916 96.3101C220.159 91.8526 224.984 85.9346 225.968 78.2126C226.843 71.348 218.909 56.9348 218.215 61.6107C217.521 66.2866 209.611 78.3004 200.994 68.6401Z" fill="#7A4583"/>
<path d="M61.5956 151.907C38.7045 119.88 59.7997 81.9098 74.558 66.5761C89.3163 51.2425 94.8131 42.2082 94.8131 42.2082C94.8131 42.2082 101.718 46.3679 105.354 49.8665C115.471 59.5997 141.028 56.5873 142.162 70.4592C143.467 86.4071 143.497 104.015 139.086 120.944C134.184 139.756 117.933 156.366 101.976 168.894C95.932 173.639 71.1162 176.289 63.4863 175.784C56.7037 175.334 45.2851 165.718 49.9336 165.937C54.5821 166.156 68.2955 161.281 61.5956 151.907Z" fill="#7A4583"/>
<path d="M149.25 0.633301L130.32 54.8947H168.18L149.25 0.633301Z" fill="#FFD953"/>
<path d="M127.393 0.633301L108.463 54.8947H146.323L127.393 0.633301Z" fill="#FFD953"/>
<path d="M103.853 0.633301L84.923 54.8947H122.783L103.853 0.633301Z" fill="#FFD953"/>
<path d="M167.909 445.83L108.279 490.189L218.287 658.044L263.005 631.294L167.909 445.83Z" fill="#443369"/>
<path d="M145.021 461.046L66.4835 461.046L70.2477 663.127L120.628 663.775L145.021 461.046Z" fill="#443369"/>
<rect width="29.6602" height="29.6602" transform="matrix(-1 0 0 1 147.434 177.601)" fill="#FFD2B1"/>
<path d="M130.987 199.995C2.68259 199.995 65.2737 461.046 65.2737 461.046H190.968C190.968 461.046 259.291 199.995 130.987 199.995Z" fill="#1D1D1D"/>
<rect width="29.6602" height="211.329" transform="matrix(-1 0 0 1 144.405 280.71)" fill="#FFD2B1"/>
<circle r="36.4292" transform="matrix(-1 0 0 1 131.032 254.198)" fill="#453369"/>
</svg>
