<svg width="420" height="542" viewBox="0 0 420 542" fill="none" xmlns="http://www.w3.org/2000/svg">
<path d="M284.383 95.9001C284.383 149.702 255.959 181.964 219.649 192.385C181.272 192.385 154.983 184.559 145.426 147.573C142.684 136.961 153.474 102.092 153.474 90.0971C169.748 47.9132 172.414 63.0206 213.292 55.9111C262.68 55.9111 257.724 56.7999 284.383 95.9001Z" fill="#FFD2B1"/>
<path d="M149.619 68.0078C179.062 35.0018 228.642 26.9889 247.865 36.6655C267.087 46.342 272.716 65.5424 272.716 65.5424C272.716 65.5424 269.676 73.7242 266.686 78.455C258.368 91.6163 249.322 97.1876 234.82 102.785C218.147 109.22 212.044 109.96 193.189 111.05C172.238 112.26 153.18 107.446 136.697 95.6777C130.454 91.2202 125.629 85.3023 124.645 77.5802C123.77 70.7157 131.704 56.3025 132.398 60.9783C133.092 65.6542 141.002 77.6681 149.619 68.0078Z" fill="#E39898"/>
<rect x="203.188" y="176.935" width="29.6602" height="29.6602" fill="#FFD2B1"/>
<path d="M218.447 204.838C337.603 204.838 262.972 375.258 262.972 375.258C262.972 375.258 314.939 571.497 348.237 697.238C350.652 706.359 364.184 722.846 395.188 722.846C382.722 734.308 369.502 740.938 360.378 743.085C166.61 788.689 44.36 736.811 15.4098 711.573C12.3659 708.92 4.69266 703.628 0.908554 693.74C10.139 699.681 30.4266 704.229 47.8094 690.594C73.4723 670.465 178.822 375.258 178.822 375.258C178.822 375.258 99.2907 204.838 218.447 204.838Z" fill="white"/>
<circle cx="219.591" cy="253.531" r="36.4292" fill="#FFF6D8"/>
<path d="M318.823 284.076C341.714 252.049 303.475 113.29 286.958 79.5547C270.441 45.8194 248.472 50.2133 248.472 50.2133C248.472 50.2133 242.222 61.5432 238.586 65.0418C228.469 74.775 216.068 85.3626 214.934 99.2345C213.63 115.182 236.922 236.184 241.333 253.113C246.235 271.925 262.486 288.535 278.443 301.063C284.487 305.808 309.303 308.458 316.933 307.953C323.715 307.503 335.134 297.887 330.485 298.106C325.837 298.325 312.123 293.45 318.823 284.076Z" fill="#E39898"/>
<path d="M205.02 0.00683594L223.95 54.2682H186.09L205.02 0.00683594Z" fill="#FFD953"/>
<path d="M226.876 0.00683594L245.807 54.2682H207.946L226.876 0.00683594Z" fill="#FFD953"/>
<path d="M250.417 0.00683594L269.347 54.2682H231.487L250.417 0.00683594Z" fill="#FFD953"/>
<rect x="206.217" y="280.038" width="29.6602" height="211.329" fill="#FFD2B1"/>
<path d="M370.029 321.562C369.022 211.839 303.34 97.1675 270.625 53.5469H231.618C255.945 211.671 300.32 549.311 283.207 634.874C309.631 613.483 328.506 605.934 385.128 587.059C362.479 558.119 371.287 458.714 370.029 321.562Z" fill="white" fill-opacity="0.52"/>
</svg>
