<svg width="1728" height="1117" viewBox="0 0 1728 1117" fill="none" xmlns="http://www.w3.org/2000/svg">
<path d="M524.019 387.584C524.019 387.584 543.719 411.396 538.187 426.653C532.654 441.91 515.385 441.91 509.852 426.653C504.319 411.396 524.019 387.584 524.019 387.584Z" fill="#6ADAEA"/>
<path d="M846.602 299.737C846.602 299.737 866.302 323.548 860.77 338.805C855.237 354.062 837.968 354.062 832.435 338.805C826.902 323.548 846.602 299.737 846.602 299.737Z" fill="#6ADAEA"/>
<path d="M756 655.17C756 655.17 775.7 678.981 770.167 694.238C764.634 709.495 747.365 709.495 741.832 694.238C736.3 678.981 756 655.17 756 655.17Z" fill="#6ADAEA"/>
<path d="M1193.92 872.225C1193.92 872.225 1213.62 896.036 1208.08 911.293C1202.55 926.55 1185.28 926.55 1179.75 911.293C1174.22 896.036 1193.92 872.225 1193.92 872.225Z" fill="#6ADAEA"/>
<path d="M1576.62 910.304C1576.62 910.304 1596.32 934.115 1590.79 949.372C1585.25 964.629 1567.98 964.629 1562.45 949.372C1556.92 934.115 1576.62 910.304 1576.62 910.304Z" fill="#6ADAEA"/>
<path d="M938.086 1032.16C938.086 1032.16 957.786 1055.97 952.253 1071.23C946.72 1086.48 929.451 1086.48 923.918 1071.23C918.386 1055.97 938.086 1032.16 938.086 1032.16Z" fill="#6ADAEA"/>
<path d="M415.958 1032.16C415.958 1032.16 435.658 1055.97 430.125 1071.23C424.593 1086.48 407.323 1086.48 401.79 1071.23C396.258 1055.97 415.958 1032.16 415.958 1032.16Z" fill="#6ADAEA"/>
<path d="M73.2401 543.628C73.2401 543.628 92.9401 567.44 87.4074 582.697C81.8747 597.954 64.6054 597.954 59.0727 582.697C53.54 567.44 73.2401 543.628 73.2401 543.628Z" fill="#6ADAEA"/>
<path d="M1661.17 38.0566C1661.17 38.0566 1680.87 61.8677 1675.33 77.1248C1669.8 92.3819 1652.53 92.3819 1647 77.1248C1641.47 61.8677 1661.17 38.0566 1661.17 38.0566Z" fill="#6ADAEA"/>
<path d="M1402.22 705.681C1402.22 705.681 1421.92 729.492 1416.39 744.749C1410.86 760.006 1393.59 760.006 1388.06 744.749C1382.52 729.492 1402.22 705.681 1402.22 705.681Z" fill="#6ADAEA"/>
<path d="M968.38 12.8013C968.38 12.8013 988.08 36.6124 982.548 51.8694C977.015 67.1265 959.746 67.1265 954.213 51.8694C948.68 36.6124 968.38 12.8013 968.38 12.8013Z" fill="#6ADAEA"/>
<path d="M1450 269.092C1450 269.092 1469.7 292.903 1464.17 308.16C1458.64 323.417 1441.37 323.417 1435.83 308.16C1430.3 292.903 1450 269.092 1450 269.092Z" fill="#6ADAEA"/>
<path d="M1163.62 284.755C1163.62 284.755 1183.32 308.566 1177.79 323.823C1172.26 339.08 1154.99 339.08 1149.46 323.823C1143.92 308.566 1163.62 284.755 1163.62 284.755Z" fill="#6ADAEA"/>
<path d="M922.939 740.885C922.939 740.885 942.639 764.696 937.106 779.953C931.573 795.21 914.304 795.21 908.771 779.953C903.239 764.696 922.939 740.885 922.939 740.885Z" fill="#6ADAEA"/>
<path d="M672.735 922.735C672.735 922.735 692.435 946.546 686.903 961.804C681.37 977.061 664.101 977.061 658.568 961.804C653.035 946.546 672.735 922.735 672.735 922.735Z" fill="#6ADAEA"/>
<path d="M212.909 846.969C212.909 846.969 232.609 870.78 227.076 886.037C221.543 901.294 204.274 901.294 198.741 886.037C193.208 870.78 212.909 846.969 212.909 846.969Z" fill="#6ADAEA"/>
<path d="M539.167 139.078C539.167 139.078 558.867 162.889 553.334 178.146C547.801 193.403 530.532 193.403 524.999 178.146C519.467 162.889 539.167 139.078 539.167 139.078Z" fill="#6ADAEA"/>
<path d="M446.252 766.141C446.252 766.141 465.952 789.952 460.42 805.209C454.887 820.466 437.618 820.466 432.085 805.209C426.552 789.952 446.252 766.141 446.252 766.141Z" fill="#6ADAEA"/>
<path d="M1097.02 568.884C1097.02 568.884 1116.72 592.695 1111.19 607.952C1105.66 623.209 1088.39 623.209 1082.86 607.952C1077.32 592.695 1097.02 568.884 1097.02 568.884Z" fill="#6ADAEA"/>
<path d="M243.203 319.603C243.203 319.603 262.903 343.414 257.37 358.671C251.838 373.928 234.568 373.928 229.036 358.671C223.503 343.414 243.203 319.603 243.203 319.603Z" fill="#6ADAEA"/>
<path d="M309.843 594.139C309.843 594.139 329.543 617.95 324.01 633.207C318.477 648.464 301.208 648.464 295.675 633.207C290.143 617.95 309.843 594.139 309.843 594.139Z" fill="#6ADAEA"/>
<path d="M1465.15 518.373C1465.15 518.373 1484.85 542.184 1479.32 557.441C1473.78 572.698 1456.51 572.698 1450.98 557.441C1445.45 542.184 1465.15 518.373 1465.15 518.373Z" fill="#6ADAEA"/>
<path d="M1296.11 63.312C1296.11 63.312 1315.81 87.1231 1310.28 102.38C1304.74 117.637 1287.47 117.637 1281.94 102.38C1276.41 87.1231 1296.11 63.312 1296.11 63.312Z" fill="#6ADAEA"/>
<path d="M121.347 88.5674C121.347 88.5674 141.048 112.378 135.515 127.636C129.982 142.893 112.713 142.893 107.18 127.636C101.647 112.378 121.347 88.5674 121.347 88.5674Z" fill="#6ADAEA"/>
</svg>
