<svg width="1355" height="177" viewBox="0 0 1355 177" fill="none" xmlns="http://www.w3.org/2000/svg">
<path d="M76.32 77.08C76.32 77.5067 76.1067 77.76 75.68 77.84L73.68 78.28L65.68 104H62.16L54.92 82.16C54.7867 81.84 54.6533 81.36 54.52 80.72L54.32 81.44C54.2933 81.5467 54.2667 81.6667 54.24 81.8C54.2133 81.9333 54.1867 82.0533 54.16 82.16L46.88 104H43.36L35.36 78.24C34.32 78.0267 33.6533 77.8667 33.36 77.76C32.9333 77.68 32.72 77.44 32.72 77.04V75.32H42.48V77.04C42.48 77.44 42.2667 77.68 41.84 77.76C41.2533 77.8933 40.7733 78 40.4 78.08C40.0267 78.16 39.76 78.2133 39.6 78.24L44.88 96.16C45.1733 97.2267 45.36 98.0533 45.44 98.64C45.68 97.4933 45.88 96.6667 46.04 96.16L52.8 76.24C52.88 76.0267 53.04 75.8133 53.28 75.6C53.5467 75.3867 53.8267 75.28 54.12 75.28H55.24C55.88 75.28 56.32 75.6 56.56 76.24L63.28 96.16C63.5733 97.0667 63.7867 97.8667 63.92 98.56L64.12 97.28L64.36 96.16L69.68 78.24C69.52 78.24 69.0533 78.1467 68.28 77.96L67.44 77.8C67.0133 77.72 66.8 77.4667 66.8 77.04V75.36H76.32V77.08ZM84.5066 83.44C85.6799 83.44 86.7866 83.64 87.8266 84.04C88.8932 84.44 89.7732 85.0133 90.4666 85.76C91.2666 86.6133 91.8532 87.56 92.2266 88.6C92.6532 89.8 92.8666 91.08 92.8666 92.44C92.8666 93.0533 92.8132 93.4267 92.7066 93.56C92.5732 93.7467 92.3332 93.84 91.9866 93.84H78.5466C78.5466 95.12 78.7066 96.24 79.0266 97.2C79.2932 98.0267 79.7466 98.8 80.3866 99.52C80.9732 100.187 81.6399 100.667 82.3866 100.96C83.1866 101.28 84.0399 101.44 84.9466 101.44C85.9066 101.44 86.6799 101.347 87.2666 101.16C87.8266 100.973 88.3866 100.747 88.9466 100.48C89.5332 100.187 89.9332 99.9733 90.1466 99.84C90.4932 99.6267 90.7599 99.52 90.9466 99.52C91.2399 99.52 91.4666 99.64 91.6266 99.88L92.6266 101.2C92.2532 101.68 91.7199 102.133 91.0266 102.56C90.2266 103.067 89.5732 103.4 89.0666 103.56C88.2666 103.827 87.5466 104.013 86.9066 104.12C86.1066 104.253 85.3732 104.32 84.7066 104.32C83.3199 104.32 82.0266 104.08 80.8266 103.6C79.6799 103.147 78.6532 102.44 77.7466 101.48C76.8932 100.6 76.2266 99.4667 75.7466 98.08C75.2666 96.72 75.0266 95.1733 75.0266 93.44C75.0266 92.0533 75.2532 90.7467 75.7066 89.52C76.1599 88.2667 76.7866 87.2 77.5866 86.32C78.4132 85.4133 79.4132 84.7067 80.5866 84.2C81.7599 83.6933 83.0666 83.44 84.5066 83.44ZM84.5866 86.04C82.8532 86.04 81.5066 86.5333 80.5466 87.52C79.5599 88.56 78.9466 89.9467 78.7066 91.68H89.7066C89.7066 90.8533 89.5866 90.1067 89.3466 89.44C89.0532 88.6133 88.7332 88.0133 88.3866 87.64C87.9332 87.16 87.3866 86.7733 86.7466 86.48C86.1332 86.2133 85.3999 86.08 84.5466 86.08L84.5866 86.04ZM97.0381 73.84C97.4915 74.56 97.7848 75.2 97.9181 75.76C98.0781 76.4 98.1581 77.04 98.1581 77.68C98.1581 78.88 97.8648 80.0267 97.2781 81.12C96.6915 82.1867 95.8648 83.2 94.7981 84.16L93.6781 83.48C93.5448 83.3467 93.4781 83.28 93.4781 83.28C93.4515 83.2267 93.4381 83.1467 93.4381 83.04C93.4381 82.8267 93.4915 82.6667 93.5981 82.56C93.7581 82.4 93.9715 82.1067 94.2381 81.68C94.5848 81.1467 94.7715 80.84 94.7981 80.76C94.9581 80.44 95.0781 80.1067 95.1581 79.76C95.2381 79.3867 95.2781 79 95.2781 78.6C95.2781 78.1467 95.2248 77.7067 95.1181 77.28C94.9848 76.7733 94.7715 76.2933 94.4781 75.84C94.4515 75.7867 94.4115 75.7333 94.3581 75.68C94.3315 75.6 94.3181 75.52 94.3181 75.44C94.3181 75.12 94.5048 74.88 94.8781 74.72L97.0381 73.84ZM109.695 101.52C110.122 101.6 110.335 101.853 110.335 102.28V104H100.975V102.28C100.975 101.853 101.189 101.6 101.615 101.52L103.855 101.08V77.44C102.629 77.2 101.882 77.04 101.615 76.96C101.189 76.88 100.975 76.64 100.975 76.24V74.52H107.455V101.04C108.682 101.28 109.429 101.44 109.695 101.52ZM121.297 101.52C121.724 101.6 121.937 101.853 121.937 102.28V104H112.577V102.28C112.577 101.853 112.79 101.6 113.217 101.52L115.457 101.08V77.44C114.23 77.2 113.484 77.04 113.217 76.96C112.79 76.88 112.577 76.64 112.577 76.24V74.52H119.057V101.04C120.284 101.28 121.03 101.44 121.297 101.52ZM140.732 83.44C142.119 83.44 143.879 83.8 146.012 84.52V89.72H144.452C144.079 89.72 143.852 89.5333 143.772 89.16L143.532 86.52C142.279 86.2267 141.239 86.08 140.412 86.08H140.372C139.279 86.08 138.359 86.3733 137.612 86.96C136.892 87.52 136.532 88.1333 136.532 88.8C136.532 89.4933 136.692 90 137.012 90.32C137.546 90.9333 138.319 91.4 139.332 91.72L140.532 92.08C140.746 92.1333 141.172 92.2667 141.812 92.48L143.732 93.2C144.266 93.3867 144.826 93.7333 145.412 94.24C146.506 95.0933 147.052 96.2667 147.052 97.76C147.052 99.7067 146.399 101.253 145.092 102.4C143.679 103.653 141.892 104.28 139.732 104.28C137.519 104.28 135.332 103.92 133.172 103.2V97.92H134.612C134.932 97.92 135.132 98.08 135.212 98.4L135.452 100.96C136.519 101.493 137.892 101.76 139.572 101.76C140.852 101.76 141.892 101.427 142.692 100.76C143.386 100.147 143.732 99.4667 143.732 98.72C143.732 97.9467 143.572 97.3867 143.252 97.04C142.879 96.6133 142.479 96.2933 142.052 96.08C141.466 95.7867 140.906 95.5733 140.372 95.44C138.399 94.8 137.159 94.3733 136.652 94.16C136.012 93.8667 135.412 93.4933 134.852 93.04C133.732 92.1067 133.172 90.8533 133.172 89.28C133.172 87.68 133.812 86.32 135.092 85.2C136.426 84.0267 138.306 83.44 140.732 83.44ZM159.513 83.44C160.98 83.44 162.313 83.68 163.513 84.16C164.686 84.64 165.713 85.3333 166.593 86.24C167.42 87.0933 168.06 88.1867 168.513 89.52C168.966 90.8267 169.193 92.2667 169.193 93.84C169.193 95.4133 168.966 96.8533 168.513 98.16C168.06 99.4933 167.42 100.587 166.593 101.44C165.713 102.347 164.686 103.04 163.513 103.52C162.313 104 160.98 104.24 159.513 104.24C158.046 104.24 156.713 104 155.513 103.52C154.34 103.04 153.313 102.347 152.433 101.44C151.633 100.613 150.98 99.52 150.473 98.16C150.046 97.0133 149.833 95.5733 149.833 93.84C149.833 92.1067 150.046 90.6667 150.473 89.52C150.98 88.16 151.633 87.0667 152.433 86.24C153.313 85.3333 154.34 84.64 155.513 84.16C156.713 83.68 158.046 83.44 159.513 83.44ZM159.513 101.52C161.566 101.52 163.06 100.853 163.993 99.52C164.98 98.1333 165.473 96.2533 165.473 93.88C165.473 91.5067 164.98 89.6267 163.993 88.24C163.06 86.9067 161.566 86.24 159.513 86.24C158.473 86.24 157.593 86.4 156.873 86.72C156.18 87.04 155.566 87.5467 155.033 88.24C154.526 88.9333 154.153 89.7333 153.913 90.64C153.646 91.7067 153.513 92.8 153.513 93.92C153.513 94.9867 153.646 96.0533 153.913 97.12C154.153 98.0267 154.526 98.8267 155.033 99.52C155.486 100.133 156.1 100.613 156.873 100.96C157.726 101.333 158.606 101.52 159.513 101.52ZM181.662 83.44C183.128 83.44 184.462 83.68 185.662 84.16C186.835 84.64 187.862 85.3333 188.742 86.24C189.568 87.0933 190.208 88.1867 190.662 89.52C191.115 90.8267 191.342 92.2667 191.342 93.84C191.342 95.4133 191.115 96.8533 190.662 98.16C190.208 99.4933 189.568 100.587 188.742 101.44C187.862 102.347 186.835 103.04 185.662 103.52C184.462 104 183.128 104.24 181.662 104.24C180.195 104.24 178.862 104 177.662 103.52C176.488 103.04 175.462 102.347 174.582 101.44C173.782 100.613 173.128 99.52 172.622 98.16C172.195 97.0133 171.982 95.5733 171.982 93.84C171.982 92.1067 172.195 90.6667 172.622 89.52C173.128 88.16 173.782 87.0667 174.582 86.24C175.462 85.3333 176.488 84.64 177.662 84.16C178.862 83.68 180.195 83.44 181.662 83.44ZM181.662 101.52C183.715 101.52 185.208 100.853 186.142 99.52C187.128 98.1333 187.622 96.2533 187.622 93.88C187.622 91.5067 187.128 89.6267 186.142 88.24C185.208 86.9067 183.715 86.24 181.662 86.24C180.622 86.24 179.742 86.4 179.022 86.72C178.328 87.04 177.715 87.5467 177.182 88.24C176.675 88.9333 176.302 89.7333 176.062 90.64C175.795 91.7067 175.662 92.8 175.662 93.92C175.662 94.9867 175.795 96.0533 176.062 97.12C176.302 98.0267 176.675 98.8267 177.182 99.52C177.635 100.133 178.248 100.613 179.022 100.96C179.875 101.333 180.755 101.52 181.662 101.52ZM199.834 86.64C201.834 84.48 204.074 83.4 206.554 83.4C208.741 83.4 210.421 84.1067 211.594 85.52C212.741 86.9067 213.314 88.76 213.314 91.08V101.04C214.594 101.28 215.354 101.44 215.594 101.52C216.021 101.6 216.234 101.853 216.234 102.28V104H209.754V91.12C209.754 87.8667 208.341 86.24 205.514 86.24C203.514 86.24 201.674 87.1867 199.994 89.08V101.08C200.101 101.08 200.874 101.24 202.314 101.56C202.714 101.64 202.914 101.893 202.914 102.32V104H193.594V102.32C193.594 101.893 193.781 101.64 194.154 101.56L196.474 101.12V86.68C195.141 86.44 194.368 86.28 194.154 86.2C193.781 86.12 193.594 85.8667 193.594 85.44V83.76H198.554C199.034 83.76 199.354 84 199.514 84.48L199.834 86.68V86.64ZM248.148 101.52C248.548 101.6 248.748 101.853 248.748 102.28V104H239.428V102.28C239.428 101.853 239.628 101.6 240.028 101.52L242.308 101.08V86.72H233.748V101.08C235.215 101.293 236.095 101.44 236.388 101.52C236.788 101.6 236.988 101.853 236.988 102.28V104H227.028V102.28C227.028 101.853 227.241 101.6 227.668 101.52L229.108 101.28C229.055 101.307 229.401 101.24 230.148 101.08V86.8L227.908 86.52C227.268 86.36 226.948 86.0533 226.948 85.6V84.16H230.148V83.04C230.148 80.5333 230.921 78.5067 232.468 76.96C234.041 75.4667 236.335 74.68 239.348 74.6C241.828 74.6 243.881 75.2267 245.508 76.48C246.255 77.0667 246.628 77.76 246.628 78.56C246.628 79.2533 246.361 79.84 245.828 80.32C245.348 80.8 244.841 81.04 244.308 81.04C243.721 81.04 243.321 80.9867 243.108 80.88C242.788 80.72 242.521 80.5333 242.308 80.32C241.828 79.84 241.588 79.2533 241.588 78.56C241.588 78.1867 241.615 77.92 241.668 77.76C240.841 77.4667 240.041 77.32 239.268 77.32C238.841 77.32 238.428 77.36 238.028 77.44C236.855 77.68 235.935 78.1067 235.268 78.72C234.175 79.68 233.628 81.1467 233.628 83.12V84.16H245.868V101.08L248.148 101.52ZM257.295 86.64C259.295 84.48 261.535 83.4 264.015 83.4C266.202 83.4 267.882 84.1067 269.055 85.52C270.202 86.9067 270.775 88.76 270.775 91.08V101.04C272.055 101.28 272.815 101.44 273.055 101.52C273.482 101.6 273.695 101.853 273.695 102.28V104H267.215V91.12C267.215 87.8667 265.802 86.24 262.975 86.24C260.975 86.24 259.135 87.1867 257.455 89.08V101.08C257.562 101.08 258.335 101.24 259.775 101.56C260.175 101.64 260.375 101.893 260.375 102.32V104H251.055V102.32C251.055 101.893 251.242 101.64 251.615 101.56L253.935 101.12V86.68C252.602 86.44 251.829 86.28 251.615 86.2C251.242 86.12 251.055 85.8667 251.055 85.44V83.76H256.015C256.495 83.76 256.815 84 256.975 84.48L257.295 86.68V86.64ZM284.375 83.36C286.615 83.36 288.455 84.16 289.895 85.76V77.44L287.215 76.96C286.815 76.88 286.615 76.64 286.615 76.24V74.48H293.415V101.04C294.749 101.28 295.522 101.44 295.735 101.52C296.109 101.6 296.295 101.84 296.295 102.24V104H291.335C290.855 104 290.535 103.747 290.375 103.24L290.055 100.8C288.162 103.093 285.895 104.24 283.255 104.24C280.882 104.24 279.015 103.36 277.655 101.6C276.269 99.76 275.575 97.2 275.575 93.92C275.575 90.8533 276.362 88.3467 277.935 86.4C279.562 84.3733 281.709 83.36 284.375 83.36ZM284.455 101.4C286.562 101.4 288.375 100.373 289.895 98.32V88.56C288.695 86.96 287.135 86.16 285.215 86.16C283.269 86.16 281.789 86.8267 280.775 88.16C279.762 89.4933 279.255 91.4133 279.255 93.92C279.255 97.7333 280.242 100.08 282.215 100.96C282.829 101.227 283.562 101.36 284.415 101.36L284.455 101.4ZM316.427 83.44C317.894 83.44 319.227 83.68 320.427 84.16C321.601 84.64 322.627 85.3333 323.507 86.24C324.334 87.0933 324.974 88.1867 325.427 89.52C325.881 90.8267 326.107 92.2667 326.107 93.84C326.107 95.4133 325.881 96.8533 325.427 98.16C324.974 99.4933 324.334 100.587 323.507 101.44C322.627 102.347 321.601 103.04 320.427 103.52C319.227 104 317.894 104.24 316.427 104.24C314.961 104.24 313.627 104 312.427 103.52C311.254 103.04 310.227 102.347 309.347 101.44C308.547 100.613 307.894 99.52 307.387 98.16C306.961 97.0133 306.747 95.5733 306.747 93.84C306.747 92.1067 306.961 90.6667 307.387 89.52C307.894 88.16 308.547 87.0667 309.347 86.24C310.227 85.3333 311.254 84.64 312.427 84.16C313.627 83.68 314.961 83.44 316.427 83.44ZM316.427 101.52C318.481 101.52 319.974 100.853 320.907 99.52C321.894 98.1333 322.387 96.2533 322.387 93.88C322.387 91.5067 321.894 89.6267 320.907 88.24C319.974 86.9067 318.481 86.24 316.427 86.24C315.387 86.24 314.507 86.4 313.787 86.72C313.094 87.04 312.481 87.5467 311.947 88.24C311.441 88.9333 311.067 89.7333 310.827 90.64C310.561 91.7067 310.427 92.8 310.427 93.92C310.427 94.9867 310.561 96.0533 310.827 97.12C311.067 98.0267 311.441 98.8267 311.947 99.52C312.401 100.133 313.014 100.613 313.787 100.96C314.641 101.333 315.521 101.52 316.427 101.52ZM338.28 101.52C340.28 101.52 342.107 100.587 343.76 98.72V86.72C343.52 86.64 342.76 86.48 341.48 86.24C341.08 86.16 340.88 85.9067 340.88 85.48V83.76H347.32V101.12C348.6 101.36 349.36 101.52 349.6 101.6C350 101.68 350.2 101.92 350.2 102.32V104.04H345.2C344.72 104.04 344.4 103.787 344.24 103.28L343.96 101.12C342.04 103.28 339.8 104.36 337.24 104.36C335.08 104.36 333.4 103.653 332.2 102.24C331.027 100.827 330.44 98.9733 330.44 96.68V86.68C329.213 86.44 328.467 86.28 328.2 86.2C327.773 86.12 327.56 85.8667 327.56 85.44V83.76H334.04V96.64C334.04 98.24 334.387 99.44 335.08 100.24C335.8 101.067 336.867 101.48 338.28 101.48V101.52ZM359.157 104.32C357.61 104.32 356.383 103.867 355.477 102.96C354.623 102.107 354.197 100.827 354.197 99.12V86.72H351.757C351.517 86.72 351.33 86.6667 351.197 86.56C351.063 86.4533 350.997 86.2533 350.997 85.96V84.56L354.317 84.12L355.117 77.84C355.117 77.6267 355.197 77.4667 355.357 77.36C355.49 77.2533 355.677 77.2 355.917 77.2H357.717V84.16H363.517V86.76H357.717V98.92C357.717 99.8 357.917 100.44 358.317 100.84C358.717 101.24 359.263 101.44 359.957 101.44C360.25 101.44 360.583 101.387 360.957 101.28C361.197 101.2 361.437 101.093 361.677 100.96C361.757 100.907 361.837 100.853 361.917 100.8C361.997 100.747 362.077 100.693 362.157 100.64C362.37 100.533 362.503 100.48 362.557 100.48C362.743 100.48 362.903 100.587 363.037 100.8L364.077 102.48C363.357 103.093 362.61 103.547 361.837 103.84C360.957 104.16 360.063 104.32 359.157 104.32ZM377.762 79.16C377.548 78.9467 377.362 78.68 377.202 78.36C377.068 78.0933 377.002 77.7733 377.002 77.4C377.002 77 377.068 76.6667 377.202 76.4C377.388 76.0267 377.575 75.7467 377.762 75.56C377.975 75.3467 378.242 75.16 378.562 75C378.828 74.8667 379.148 74.8 379.522 74.8C379.895 74.8 380.215 74.8667 380.482 75C380.802 75.16 381.068 75.3467 381.282 75.56C381.468 75.7467 381.655 76.0267 381.842 76.4C382.002 76.72 382.082 77.0533 382.082 77.4C382.082 77.72 382.002 78.04 381.842 78.36C381.682 78.68 381.495 78.9467 381.282 79.16C381.068 79.3733 380.802 79.56 380.482 79.72C380.215 79.8533 379.895 79.92 379.522 79.92C379.148 79.92 378.828 79.8533 378.562 79.72C378.242 79.56 377.975 79.3733 377.762 79.16ZM383.562 101.52C383.748 101.547 383.895 101.64 384.002 101.8C384.108 101.933 384.162 102.093 384.162 102.28V104H374.842V102.28C374.842 102.093 374.895 101.933 375.002 101.8C375.108 101.64 375.255 101.547 375.442 101.52L377.762 101.08V86.64L375.442 86.2C375.255 86.1733 375.108 86.0933 375.002 85.96C374.895 85.8 374.842 85.6267 374.842 85.44V83.76H381.282V101.08L383.562 101.52ZM397.084 77.68C394.364 77.68 393.004 79.2133 393.004 82.28V84.16H398.844V86.72H393.084V101.08C394.364 101.267 395.257 101.413 395.764 101.52C396.164 101.6 396.364 101.853 396.364 102.28V104H386.444V102.28C386.444 101.853 386.644 101.6 387.044 101.52L389.524 101.08V86.8L387.284 86.52C386.644 86.36 386.324 86.0533 386.324 85.6V84.16H389.524V82.2C389.524 79.8533 390.151 78.0533 391.404 76.8C392.631 75.5467 394.324 74.92 396.484 74.92C397.284 74.92 398.124 75.0533 399.004 75.32L398.924 77.12C398.924 77.36 398.804 77.52 398.564 77.6C398.404 77.6533 398.097 77.68 397.644 77.68H397.084ZM431.681 85.44C431.681 85.84 431.481 86.08 431.081 86.16C430.974 86.16 430.814 86.1867 430.601 86.24C430.414 86.2933 430.214 86.3467 430.001 86.4L429.001 86.6L418.961 109.96C418.854 110.227 418.681 110.44 418.441 110.6C418.227 110.76 417.974 110.84 417.681 110.84H415.041L418.721 102.8L411.601 86.56C410.801 86.4267 410.201 86.2933 409.801 86.16C409.401 86.08 409.201 85.84 409.201 85.44V83.72H418.281V85.44C418.281 85.84 418.081 86.08 417.681 86.16C417.414 86.24 416.667 86.4 415.441 86.64L419.961 97.2C420.094 97.4933 420.201 97.84 420.281 98.24C420.387 98.64 420.454 98.9067 420.481 99.04C420.667 98.4 420.881 97.7867 421.121 97.2L425.481 86.64C425.481 86.64 424.747 86.4933 423.281 86.2C422.907 86.12 422.721 85.8667 422.721 85.44V83.76H430.241L431.681 83.72V85.44ZM442.521 83.44C443.988 83.44 445.321 83.68 446.521 84.16C447.694 84.64 448.721 85.3333 449.601 86.24C450.428 87.0933 451.068 88.1867 451.521 89.52C451.974 90.8267 452.201 92.2667 452.201 93.84C452.201 95.4133 451.974 96.8533 451.521 98.16C451.068 99.4933 450.428 100.587 449.601 101.44C448.721 102.347 447.694 103.04 446.521 103.52C445.321 104 443.988 104.24 442.521 104.24C441.054 104.24 439.721 104 438.521 103.52C437.348 103.04 436.321 102.347 435.441 101.44C434.641 100.613 433.988 99.52 433.481 98.16C433.054 97.0133 432.841 95.5733 432.841 93.84C432.841 92.1067 433.054 90.6667 433.481 89.52C433.988 88.16 434.641 87.0667 435.441 86.24C436.321 85.3333 437.348 84.64 438.521 84.16C439.721 83.68 441.054 83.44 442.521 83.44ZM442.521 101.52C444.574 101.52 446.068 100.853 447.001 99.52C447.988 98.1333 448.481 96.2533 448.481 93.88C448.481 91.5067 447.988 89.6267 447.001 88.24C446.068 86.9067 444.574 86.24 442.521 86.24C441.481 86.24 440.601 86.4 439.881 86.72C439.188 87.04 438.574 87.5467 438.041 88.24C437.534 88.9333 437.161 89.7333 436.921 90.64C436.654 91.7067 436.521 92.8 436.521 93.92C436.521 94.9867 436.654 96.0533 436.921 97.12C437.161 98.0267 437.534 98.8267 438.041 99.52C438.494 100.133 439.108 100.613 439.881 100.96C440.734 101.333 441.614 101.52 442.521 101.52ZM464.374 101.52C466.374 101.52 468.2 100.587 469.854 98.72V86.72C469.614 86.64 468.854 86.48 467.574 86.24C467.174 86.16 466.974 85.9067 466.974 85.48V83.76H473.414V101.12C474.694 101.36 475.454 101.52 475.694 101.6C476.094 101.68 476.294 101.92 476.294 102.32V104.04H471.294C470.814 104.04 470.494 103.787 470.334 103.28L470.054 101.12C468.134 103.28 465.894 104.36 463.334 104.36C461.174 104.36 459.494 103.653 458.294 102.24C457.12 100.827 456.534 98.9733 456.534 96.68V86.68C455.307 86.44 454.56 86.28 454.294 86.2C453.867 86.12 453.654 85.8667 453.654 85.44V83.76H460.134V96.64C460.134 98.24 460.48 99.44 461.174 100.24C461.894 101.067 462.96 101.48 464.374 101.48V101.52ZM482.312 73.84C482.765 74.56 483.058 75.2 483.192 75.76C483.352 76.4 483.432 77.04 483.432 77.68C483.432 78.88 483.138 80.0267 482.552 81.12C481.965 82.1867 481.138 83.2 480.072 84.16L478.952 83.48C478.818 83.3467 478.752 83.28 478.752 83.28C478.725 83.2267 478.712 83.1467 478.712 83.04C478.712 82.8267 478.765 82.6667 478.872 82.56C479.032 82.4 479.245 82.1067 479.512 81.68C479.858 81.1467 480.045 80.84 480.072 80.76C480.232 80.44 480.352 80.1067 480.432 79.76C480.512 79.3867 480.552 79 480.552 78.6C480.552 78.1467 480.498 77.7067 480.392 77.28C480.258 76.7733 480.045 76.2933 479.752 75.84C479.725 75.7867 479.685 75.7333 479.632 75.68C479.605 75.6 479.592 75.52 479.592 75.44C479.592 75.12 479.778 74.88 480.152 74.72L482.312 73.84ZM492.609 87.88C494.102 84.8667 496.155 83.36 498.769 83.36C499.809 83.36 500.729 83.6 501.529 84.08L501.089 86.76C501.009 87.1067 500.835 87.28 500.569 87.28C500.382 87.28 500.062 87.2133 499.609 87.08C499.155 86.9467 498.609 86.88 497.969 86.88C495.622 86.88 493.889 88.2933 492.769 91.12V101.12L495.049 101.56C495.449 101.64 495.649 101.893 495.649 102.32V104H486.329V102.32C486.329 101.893 486.529 101.64 486.929 101.56L489.209 101.12V86.68C487.929 86.44 487.169 86.28 486.929 86.2C486.529 86.12 486.329 85.8667 486.329 85.44V83.76H491.249C491.622 83.76 491.875 83.8267 492.009 83.96C492.142 84.0933 492.249 84.3467 492.329 84.72L492.569 87.88H492.609ZM511.811 83.44C512.985 83.44 514.091 83.64 515.131 84.04C516.198 84.44 517.078 85.0133 517.771 85.76C518.571 86.6133 519.158 87.56 519.531 88.6C519.958 89.8 520.171 91.08 520.171 92.44C520.171 93.0533 520.118 93.4267 520.011 93.56C519.878 93.7467 519.638 93.84 519.291 93.84H505.851C505.851 95.12 506.011 96.24 506.331 97.2C506.598 98.0267 507.051 98.8 507.691 99.52C508.278 100.187 508.945 100.667 509.691 100.96C510.491 101.28 511.345 101.44 512.251 101.44C513.211 101.44 513.985 101.347 514.571 101.16C515.131 100.973 515.691 100.747 516.251 100.48C516.838 100.187 517.238 99.9733 517.451 99.84C517.798 99.6267 518.065 99.52 518.251 99.52C518.545 99.52 518.771 99.64 518.931 99.88L519.931 101.2C519.558 101.68 519.025 102.133 518.331 102.56C517.531 103.067 516.878 103.4 516.371 103.56C515.571 103.827 514.851 104.013 514.211 104.12C513.411 104.253 512.678 104.32 512.011 104.32C510.625 104.32 509.331 104.08 508.131 103.6C506.985 103.147 505.958 102.44 505.051 101.48C504.198 100.6 503.531 99.4667 503.051 98.08C502.571 96.72 502.331 95.1733 502.331 93.44C502.331 92.0533 502.558 90.7467 503.011 89.52C503.465 88.2667 504.091 87.2 504.891 86.32C505.718 85.4133 506.718 84.7067 507.891 84.2C509.065 83.6933 510.371 83.44 511.811 83.44ZM511.891 86.04C510.158 86.04 508.811 86.5333 507.851 87.52C506.865 88.56 506.251 89.9467 506.011 91.68H517.011C517.011 90.8533 516.891 90.1067 516.651 89.44C516.358 88.6133 516.038 88.0133 515.691 87.64C515.238 87.16 514.691 86.7733 514.051 86.48C513.438 86.2133 512.705 86.08 511.851 86.08L511.891 86.04ZM548.693 101.44C548.879 101.467 549.026 101.56 549.133 101.72C549.239 101.853 549.293 102.013 549.293 102.2V103.92H545.133C544.893 103.92 544.613 103.867 544.293 103.76C544.106 103.707 543.973 103.493 543.893 103.12L543.493 101.2L541.893 102.52C541.439 102.893 540.906 103.213 540.293 103.48C539.706 103.747 539.119 103.947 538.533 104.08C537.999 104.213 537.279 104.28 536.373 104.28C535.626 104.28 534.906 104.16 534.213 103.92C533.386 103.627 532.786 103.307 532.413 102.96C531.933 102.533 531.533 101.973 531.213 101.28C530.919 100.667 530.773 99.8667 530.773 98.88C530.773 98.0267 530.986 97.2533 531.413 96.56C531.893 95.7867 532.613 95.12 533.573 94.56C534.639 93.9467 535.919 93.4667 537.413 93.12C538.959 92.7733 540.906 92.6 543.253 92.6V91.04C543.253 89.4667 542.906 88.2667 542.213 87.44C541.519 86.6133 540.519 86.2 539.213 86.2C538.359 86.2 537.626 86.32 537.013 86.56C536.319 86.8267 535.813 87.0667 535.493 87.28C535.333 87.3867 535.146 87.5067 534.933 87.64C534.746 87.7467 534.546 87.8667 534.333 88C534.039 88.2133 533.733 88.32 533.413 88.32C533.119 88.32 532.906 88.2667 532.773 88.16C532.613 88.0267 532.479 87.8667 532.373 87.68L531.733 86.56C532.773 85.5467 533.973 84.7467 535.333 84.16C536.559 83.6267 537.999 83.36 539.653 83.36C540.853 83.36 541.866 83.5467 542.693 83.92C543.599 84.32 544.333 84.8267 544.893 85.44C545.479 86.0533 545.933 86.8533 546.253 87.84C546.546 88.72 546.693 89.76 546.693 90.96V101.08C547.973 101.347 548.639 101.493 548.693 101.52V101.44ZM543.173 94.88C541.439 94.88 540.053 94.9733 539.013 95.16C537.999 95.3467 537.066 95.6267 536.213 96C535.466 96.3467 534.933 96.7467 534.613 97.2C534.293 97.68 534.133 98.1867 534.133 98.72C534.133 99.1467 534.226 99.6 534.413 100.08C534.573 100.48 534.813 100.8 535.133 101.04C535.453 101.28 535.799 101.453 536.173 101.56C536.626 101.693 537.066 101.76 537.493 101.76C538.026 101.76 538.586 101.693 539.173 101.56C539.706 101.427 540.199 101.253 540.653 101.04C541.053 100.853 541.493 100.56 541.973 100.16C542.239 99.9467 542.639 99.5733 543.173 99.04V94.88Z" fill="black"/>
<rect width="11.1471" height="82.2045" transform="matrix(0.98041 0.196969 -0.237628 0.971356 730.751 42)" fill="#F5D86D"/>
<rect width="11.1471" height="82.2045" transform="matrix(0.98041 -0.196969 0.237628 0.971356 734.144 44.3237)" fill="#F5D86D"/>
<rect x="719.452" y="97.2881" width="10.1443" height="30.084" transform="rotate(-90 719.452 97.2881)" fill="#F5D86D"/>
<rect x="642.245" y="49.1665" width="11.8937" height="67.8401" fill="#F5D86D"/>
<rect x="642.245" y="59.9453" width="10.7783" height="45.4758" transform="rotate(-90 642.245 59.9453)" fill="#F5D86D"/>
<rect x="642.245" y="117.006" width="10.7783" height="45.4758" transform="rotate(-90 642.245 117.006)" fill="#F5D86D"/>
<rect x="642.245" y="88.4756" width="10.7783" height="45.4758" transform="rotate(-90 642.245 88.4756)" fill="#F5D86D"/>
<rect x="586" y="47.21" width="9.7572" height="91.0332" fill="#FFD953"/>
<rect width="9.66895" height="51.8159" transform="matrix(0.956949 -0.290255 0.346459 0.938065 595.757 92.4434)" fill="#FFD953"/>
<path fill-rule="evenodd" clip-rule="evenodd" d="M591.602 47.5509C592.479 47.4717 593.368 47.4312 594.267 47.4312C608.92 47.4312 620.798 58.1955 620.798 71.474C620.798 84.7525 608.92 95.5169 594.267 95.5169C593.368 95.5169 592.479 95.4763 591.602 95.3971V86.0572C592.469 86.1863 593.359 86.2534 594.266 86.2534C603.273 86.2534 610.574 79.6368 610.574 71.4747C610.574 63.3127 603.273 56.6961 594.266 56.6961C593.359 56.6961 592.469 56.7632 591.602 56.8923V47.5509Z" fill="#FFD953"/>
<rect x="788.103" y="49.1665" width="12.8801" height="69.1958" fill="#F5E4A5"/>
<rect width="11.6723" height="44.4154" transform="matrix(0 -1 -1 0 832.519 118.362)" fill="#F5E4A5"/>
<path d="M1132.33 49.1651H1144.49V126.009H1132.33V49.1651Z" fill="#E39898"/>
<path d="M1132.33 61.374V49.1651H1178.82V61.374H1132.33Z" fill="#E39898"/>
<path d="M1132.33 126.009V113.801H1178.82V126.009H1132.33Z" fill="#E39898"/>
<path d="M1132.33 93.6917V81.4828H1178.82V93.6917H1132.33Z" fill="#E39898"/>
<path d="M993.21 36.9562H1005.37V113.801H993.21V36.9562Z" fill="#E39898"/>
<path d="M980.811 49.1651V36.9562H1017.77V49.1651H980.811Z" fill="#E39898"/>
<path d="M980.811 114.16V101.951H1017.77V114.16H980.811Z" fill="#E39898"/>
<path d="M1119.28 42.9891C1118.1 42.8708 1116.9 42.8103 1115.69 42.8103C1095.94 42.8103 1079.93 58.8871 1079.93 78.7188C1079.93 98.5506 1095.94 114.627 1115.69 114.627C1116.9 114.627 1118.1 114.567 1119.28 114.449V100.498C1118.11 100.691 1116.91 100.791 1115.69 100.791C1103.55 100.791 1093.71 90.9091 1093.71 78.7189C1093.71 66.5287 1103.55 56.6466 1115.69 56.6466C1116.91 56.6466 1118.11 56.7469 1119.28 56.9398V42.9891Z" fill="#E39898"/>
<path d="M883 27.6091H892.974V130.725H883V27.6091Z" fill="#E39898"/>
<path d="M888.726 27.9955C889.622 27.9058 890.531 27.8598 891.45 27.8598C906.428 27.8598 918.57 40.0529 918.57 55.0938C918.57 70.1348 906.428 82.3279 891.45 82.3279C890.531 82.3279 889.622 82.2819 888.726 82.1922V71.6121C889.613 71.7584 890.522 71.8344 891.45 71.8344C900.656 71.8344 908.12 64.3396 908.12 55.0942C908.12 45.8489 900.656 38.354 891.45 38.354C890.522 38.354 889.613 38.4301 888.726 38.5764V27.9955Z" fill="#E39898"/>
<path d="M931.622 24H941.596V127.116H931.622V24Z" fill="#E39898"/>
<path d="M941.596 75.2367L951.054 72.0577L969.404 127.116L959.946 130.295L941.596 75.2367Z" fill="#E39898"/>
<path d="M937.349 24.3864C938.244 24.2967 939.153 24.2507 940.072 24.2507C955.05 24.2507 967.192 36.4438 967.192 51.4848C967.192 66.5257 955.05 78.7188 940.072 78.7188C939.153 78.7188 938.244 78.6728 937.349 78.5831V68.003C938.235 68.1493 939.145 68.2253 940.072 68.2253C949.279 68.2253 956.742 60.7305 956.742 51.4851C956.742 42.2398 949.279 34.7449 940.072 34.7449C939.145 34.7449 938.235 34.821 937.349 34.9673V24.3864Z" fill="#E39898"/>
<path d="M1059.57 37.1354H1072.73V115.515H1059.57V37.1354Z" fill="#E39898"/>
<path d="M1034.19 36.9898H1047.35V115.37H1034.19V36.9898Z" fill="#E39898"/>
<path d="M1038.11 40.2216L1050.87 36.9562L1069.98 112.25L1057.22 115.515L1038.11 40.2216Z" fill="#E39898"/>
<path d="M1235.74 46.9829C1235.1 46.434 1234.42 45.9121 1233.71 45.42C1222.12 37.403 1206.25 40.3405 1198.27 51.981C1190.28 63.6215 1193.21 79.557 1204.8 87.574C1205.51 88.0661 1206.24 88.5169 1206.98 88.9269L1212.59 80.7385C1211.83 80.3773 1211.09 79.9492 1210.37 79.4527C1203.24 74.5248 1201.45 64.7296 1206.35 57.5744C1211.26 50.4192 1221.01 48.6136 1228.14 53.5415C1228.86 54.038 1229.52 54.5838 1230.13 55.1714L1235.74 46.9829Z" fill="#E39898"/>
<path d="M1221.9 83.9755C1222.64 84.3856 1223.37 84.8364 1224.08 85.3285C1235.67 93.3455 1238.59 109.281 1230.61 120.922C1222.63 132.562 1206.76 135.5 1195.17 127.483C1194.46 126.99 1193.78 126.468 1193.13 125.92L1198.75 117.731C1199.36 118.319 1200.02 118.864 1200.74 119.361C1207.86 124.289 1217.62 122.483 1222.52 115.328C1227.43 108.173 1225.63 98.3776 1218.51 93.4498C1217.79 92.9533 1217.05 92.5252 1216.28 92.164L1221.9 83.9755Z" fill="#E39898"/>
<path d="M1208.48 79.6972L1224.25 84.5769L1221.5 93.5468L1205.73 88.6672L1208.48 79.6972Z" fill="#E39898"/>
<path d="M1297 40.3296C1296.35 39.7807 1295.68 39.2588 1294.96 38.7668C1283.37 30.7498 1267.5 33.6872 1259.52 45.3277C1251.54 56.9682 1254.46 72.9038 1266.05 80.9208C1266.77 81.4128 1267.49 81.8636 1268.23 82.2737L1273.85 74.0852C1273.09 73.724 1272.34 73.2959 1271.62 72.7994C1264.5 67.8716 1262.7 58.0763 1267.61 50.9211C1272.52 43.7659 1282.27 41.9604 1289.39 46.8882C1290.11 47.3847 1290.78 47.9306 1291.38 48.5182L1297 40.3296Z" fill="#E39898"/>
<path d="M1283.15 77.3223C1283.89 77.7323 1284.62 78.1832 1285.33 78.6753C1296.92 86.6923 1299.85 102.628 1291.87 114.268C1283.88 125.909 1268.02 128.846 1256.42 120.829C1255.71 120.337 1255.03 119.815 1254.39 119.266L1260 111.078C1260.61 111.665 1261.28 112.211 1261.99 112.708C1269.12 117.636 1278.87 115.83 1283.78 108.675C1288.69 101.52 1286.89 91.7244 1279.76 86.7965C1279.05 86.3 1278.3 85.8719 1277.54 85.5107L1283.15 77.3223Z" fill="#E39898"/>
<path d="M1269.73 73.044L1285.51 77.9236L1282.76 86.8936L1266.98 82.0139L1269.73 73.044Z" fill="#E39898"/>
</svg>
